<?xml version="1.0" encoding="UTF-8"?>
<svg id="Capa_2" data-name="Capa 2" xmlns="http://www.w3.org/2000/svg" viewBox="0 0 297.07 297.07">
  <defs>
    <style>
      .cls-1 {
        fill: #212121;
      }
    </style>
  </defs>
  <g id="Capa_1-2" data-name="Capa 1">
    <g>
      <path class="cls-1" d="m148.53,297.07C66.63,297.07,0,230.43,0,148.53S66.63,0,148.53,0s148.53,66.63,148.53,148.53-66.63,148.53-148.53,148.53Zm0-293.49C68.61,3.58,3.58,68.61,3.58,148.53s65.03,144.95,144.95,144.95,144.95-65.03,144.95-144.95S228.46,3.58,148.53,3.58Z"/>
      <g>
        <path class="cls-1" d="m131.65,101.89c-15.95,6.53-47.9,30.33-57.6,5.35-.9-2.32-2.64-12.95,2.32-8.96,18.12,14.58,43.66-1,61.57-8.95,23.74-6.1-8.2,36.09-10.59,44.13-7.64,14.97-13.65,28.37-20.02,44.55,25.3-22.43,46.17-49.02,62.96-78.2,2.58-2.19,3.26-15.23,7.07-11,21.38,19.37-48.9,84.7-66.15,95.93-4.9,5.62-11.54-.69-12.6-6.33-1.16-17.96,11.57-33.86,18.79-49.54,3.78-9.34,12.81-17.26,14.25-26.99Z"/>
        <path class="cls-1" d="m221.57,123.5c-25.05-24.81-61.56,22.83-64.38,45.21-7.81,24.18,37.16,29.47,26.52,39.41-22.96,8.75-19.19-17.9-29.45-8.92-24.42,19.41,45.89,29.54,42.37,4.42-11.33-22.99-37.46-11.64-17.35-48.31,17.2-30.82,50.8-48.86,25.5,1.42-5.25,14.52-20.71,15.04-16.53,20.45,22.57,24.17,43.06-39.9,33.32-53.67Z"/>
      </g>
      <g>
        <path class="cls-1" d="m36.34,131.54c-.03.16-.11.29-.24.38-.13.1-.28.13-.46.1l-2.22-.41c-.17-.03-.3-.12-.39-.26-.09-.14-.12-.29-.09-.44l1.37-7.41c.03-.16.11-.28.24-.38.13-.1.28-.13.46-.1l2.22.41c.17.03.3.12.39.26.09.14.12.29.09.44l-1.37,7.41Z"/>
        <path class="cls-1" d="m51.86,103.21c-.12.24-.28.41-.48.49-.2.08-.4.11-.6.08l-15.95-2.36c-.09,0-.16-.02-.22-.05-.12-.06-.2-.15-.24-.29-.05-.14-.04-.27.02-.4l1.31-2.67c.11-.23.26-.38.46-.44s.35-.08.48-.06l11.45,1.84-8.46-7.94c-.09-.1-.18-.24-.25-.43-.07-.18-.05-.39.07-.62l1.31-2.67c.06-.13.16-.22.3-.27.14-.05.27-.04.38.01.06.03.12.07.17.14l11.64,11.15c.14.14.25.31.31.51.06.2.03.43-.1.69l-1.62,3.3Z"/>
        <path class="cls-1" d="m60.05,88.57c-.11.14-.24.22-.39.24-.16.02-.3-.02-.45-.13l-12.46-9.38c-.14-.1-.22-.24-.24-.39-.02-.16.02-.31.12-.45l6.74-8.95c.11-.14.24-.22.39-.24.16-.02.31.02.45.13l1.8,1.36c.14.11.22.24.24.39s-.02.31-.13.45l-4.6,6.12,2.59,1.95,4.29-5.69c.11-.14.24-.22.4-.24.16-.02.32.03.46.13l1.67,1.26c.13.1.21.23.23.39.03.16-.01.31-.12.45l-4.29,5.69,2.67,2.01,4.72-6.27c.11-.14.24-.22.39-.24.16-.02.3.02.45.13l1.8,1.36c.14.11.22.24.24.39.02.16-.02.31-.12.45l-6.86,9.11Z"/>
        <path class="cls-1" d="m72.51,73.3c-.13.12-.28.17-.43.16s-.3-.08-.41-.21l-10.43-11.6c-.12-.13-.17-.28-.16-.43,0-.16.08-.3.21-.41l1.89-1.7c.2-.18.39-.27.56-.26.17,0,.29.03.35.05l10.53,2.96-6.08-6.77c-.12-.13-.17-.28-.17-.43,0-.16.08-.3.21-.41l2.14-1.92c.13-.12.28-.17.43-.16.16,0,.3.08.41.21l10.43,11.6c.11.12.16.26.16.42s-.07.3-.2.42l-1.91,1.72c-.19.17-.37.25-.55.23-.17-.01-.29-.03-.34-.04l-10.29-2.69,5.84,6.5c.12.13.17.28.16.43,0,.16-.08.3-.21.41l-2.14,1.93Z"/>
        <path class="cls-1" d="m94.82,56.53c-1.24.72-2.45,1.16-3.62,1.29-1.17.14-2.26-.07-3.27-.62-1.01-.55-1.89-1.48-2.66-2.8l-4.93-8.46c-.09-.15-.11-.3-.07-.46.04-.15.14-.27.29-.36l2.68-1.56c.15-.09.3-.11.46-.07.15.04.28.14.36.29l4.92,8.44c.52.9,1.14,1.45,1.83,1.64.7.2,1.44.06,2.23-.4.77-.45,1.25-1.03,1.42-1.73s0-1.5-.53-2.4l-4.92-8.44c-.09-.15-.11-.31-.06-.46.05-.16.14-.28.28-.36l2.7-1.57c.14-.08.29-.1.45-.07.16.04.28.13.37.28l4.93,8.46c.77,1.31,1.14,2.54,1.12,3.69-.02,1.15-.37,2.2-1.06,3.14-.69.95-1.66,1.79-2.92,2.52Z"/>
        <path class="cls-1" d="m108.4,49.47c-.17.06-.32.05-.46-.02s-.24-.19-.3-.35l-5.09-14.75c-.06-.17-.05-.32.02-.46s.19-.24.35-.3l10.6-3.65c.17-.06.32-.05.46.02.14.07.24.19.3.35l.74,2.13c.06.17.05.32-.02.46-.07.14-.19.24-.35.3l-7.24,2.5,1.05,3.06,6.74-2.32c.17-.06.32-.05.47.03.15.08.25.2.3.36l.68,1.97c.05.15.04.3-.02.45s-.18.25-.35.31l-6.74,2.32,1.09,3.15,7.42-2.56c.17-.06.32-.05.46.02.14.07.24.19.3.35l.74,2.13c.06.17.05.32-.02.46-.07.14-.19.24-.35.3l-10.78,3.72Z"/>
        <path class="cls-1" d="m132.95,43.22c-1.58.23-2.93.2-4.04-.1-1.11-.3-1.99-.77-2.64-1.42-.65-.65-1.04-1.38-1.2-2.2-.02-.13.02-.25.1-.37.09-.12.2-.19.35-.21l2.99-.44c.22-.03.4-.02.53.04.13.06.25.15.37.26.16.22.37.42.64.61.26.19.59.32.98.4.39.08.86.08,1.42,0,.92-.14,1.59-.38,2.01-.73.43-.35.6-.78.53-1.27-.05-.35-.22-.62-.51-.81-.29-.19-.72-.34-1.31-.44-.59-.1-1.37-.18-2.33-.23-1.24-.08-2.31-.25-3.22-.53-.91-.28-1.63-.71-2.17-1.31-.54-.59-.88-1.38-1.03-2.36-.14-.96,0-1.87.44-2.71.43-.84,1.11-1.55,2.03-2.12.92-.57,2.05-.96,3.4-1.16,1.09-.16,2.08-.16,2.95,0s1.63.44,2.27.83c.64.39,1.15.83,1.52,1.32.37.49.6.98.69,1.49.02.13-.01.25-.09.37-.08.12-.19.19-.33.21l-3.13.46c-.17.03-.33.02-.47-.03-.13-.04-.26-.13-.38-.26-.15-.33-.44-.6-.88-.8-.44-.2-.99-.26-1.64-.16-.7.1-1.22.31-1.57.61-.35.3-.49.71-.42,1.21.05.32.19.58.44.78.25.21.63.36,1.16.46s1.24.18,2.14.24c1.48.06,2.69.22,3.64.5.95.27,1.67.7,2.18,1.28.51.58.83,1.35.97,2.32.16,1.08,0,2.05-.5,2.92s-1.25,1.6-2.26,2.17-2.22.96-3.61,1.16Z"/>
        <path class="cls-1" d="m162.93,43.07c-1.58-.22-2.87-.63-3.85-1.22-.98-.6-1.69-1.3-2.13-2.1-.44-.8-.62-1.62-.53-2.45.02-.13.08-.23.2-.32.12-.09.25-.12.39-.1l3,.42c.22.03.39.09.5.19.11.1.2.21.28.35.09.26.24.51.44.76.2.25.48.47.83.66.35.19.81.32,1.36.4.92.13,1.63.08,2.14-.14s.79-.58.86-1.07c.05-.35-.04-.66-.26-.92-.22-.26-.6-.53-1.14-.79-.54-.26-1.26-.55-2.17-.87-1.17-.42-2.15-.89-2.94-1.41-.79-.52-1.37-1.14-1.72-1.86-.35-.72-.46-1.57-.32-2.55.13-.97.53-1.79,1.18-2.48.65-.68,1.5-1.17,2.54-1.46,1.04-.29,2.24-.34,3.58-.16,1.09.15,2.04.43,2.83.83.79.4,1.44.88,1.95,1.43.5.56.87,1.12,1.09,1.69s.3,1.11.25,1.62c-.02.13-.08.24-.19.33-.11.09-.23.12-.38.1l-3.14-.44c-.17-.02-.32-.08-.44-.16-.12-.08-.21-.2-.29-.36-.05-.36-.26-.7-.62-1.02-.37-.32-.88-.52-1.53-.61-.7-.1-1.26-.05-1.68.14-.42.19-.67.54-.74,1.05-.04.32.02.61.21.88.18.27.51.52.98.77.47.24,1.14.52,1.98.83,1.41.47,2.52.97,3.35,1.49.83.53,1.41,1.14,1.73,1.84.32.7.42,1.53.28,2.5-.15,1.08-.58,1.97-1.3,2.67-.72.7-1.65,1.18-2.78,1.44-1.14.26-2.4.3-3.8.1Z"/>
        <path class="cls-1" d="m177.25,45.63c-.17-.06-.29-.16-.35-.3-.07-.14-.08-.3-.02-.46l5.12-14.73c.06-.17.16-.28.3-.35.14-.07.3-.07.46-.02l2.4.84c.26.09.42.21.5.36.07.15.11.27.12.34l2.5,10.65,2.99-8.59c.06-.17.16-.28.3-.35.14-.07.3-.07.46-.02l2.72.95c.17.06.28.16.35.3.07.14.08.3.02.46l-5.12,14.73c-.05.15-.15.26-.3.34-.15.08-.3.09-.47.03l-2.43-.84c-.24-.08-.4-.21-.47-.37-.07-.16-.11-.27-.13-.32l-2.61-10.31-2.87,8.25c-.06.17-.16.28-.3.35-.14.07-.3.07-.46.02l-2.72-.95Z"/>
        <path class="cls-1" d="m196,52.78c-.11-.07-.18-.17-.22-.31-.04-.14-.02-.27.04-.38.04-.07.08-.13.13-.17l12.72-10.36c.13-.13.3-.21.5-.25s.42.01.65.15l3.05,1.82c.23.14.38.31.44.5.06.19.07.38.02.55l-3.05,16.11c0,.07-.03.14-.07.21-.07.11-.17.18-.31.22-.14.04-.28.02-.4-.06l-2.54-1.51c-.21-.12-.33-.27-.37-.43s-.05-.3-.03-.39l.45-2.58-5.51-3.28-2.04,1.64c-.08.07-.19.12-.35.17-.16.05-.35,0-.59-.14l-2.54-1.51Zm8.12-2.62l3.84,2.28,1.3-6.6-5.14,4.32Z"/>
        <path class="cls-1" d="m219.84,69.74c-1.13-1.02-1.92-2.08-2.39-3.17-.47-1.09-.6-2.2-.4-3.31.2-1.11.75-2.22,1.66-3.32.43-.5.89-1.02,1.4-1.58.5-.56.99-1.09,1.47-1.59.98-.99,2.02-1.64,3.12-1.95,1.1-.31,2.22-.29,3.37.07,1.15.36,2.27,1.03,3.37,2.03.78.71,1.42,1.46,1.91,2.26.49.8.81,1.61.97,2.43.16.82.14,1.63-.06,2.41-.2.78-.59,1.51-1.18,2.18-.08.12-.2.18-.34.18-.14,0-.27-.05-.37-.14l-2.4-2.17c-.15-.14-.24-.28-.27-.42-.02-.14.02-.33.12-.56.4-.78.52-1.45.36-2.02s-.52-1.1-1.07-1.59c-.65-.59-1.33-.88-2.04-.86-.71.02-1.46.43-2.26,1.24-.92.94-1.82,1.94-2.71,2.99-.73.87-1.07,1.66-1.01,2.37.05.71.4,1.35,1.06,1.94.54.49,1.12.79,1.71.9.59.11,1.25-.08,1.96-.56.21-.14.39-.2.54-.18.15.02.3.09.45.23l2.4,2.17c.11.1.17.22.18.36.01.14-.04.26-.14.35-.61.65-1.3,1.12-2.05,1.39-.76.28-1.55.38-2.39.3-.84-.08-1.68-.32-2.52-.73s-1.65-.96-2.44-1.67Z"/>
        <path class="cls-1" d="m230.44,80.24c-.11-.14-.15-.29-.12-.45.02-.16.1-.29.25-.39l12.51-9.32c.14-.11.29-.15.45-.12.16.02.29.1.39.25l1.81,2.43c.11.14.15.29.12.45-.02.16-.1.29-.25.39l-4.27,3.18,7.04.29c.11,0,.26.02.43.08.17.06.34.19.49.4l2.06,2.77c.09.12.12.24.09.38-.03.14-.09.25-.19.32-.09.07-.19.1-.29.1l-9.24-.27-2.69,9.73c-.01.09-.07.17-.17.25-.1.08-.23.1-.37.08-.15-.02-.26-.08-.33-.19l-2.13-2.87c-.17-.23-.25-.45-.24-.64.01-.2.03-.34.05-.41l1.92-7.35-4.66,3.47c-.14.1-.29.15-.45.12-.16-.02-.29-.1-.39-.25l-1.81-2.43Z"/>
        <path class="cls-1" d="m244.08,102.2c-.69-1.44-1.06-2.74-1.11-3.89s.14-2.13.57-2.94c.43-.81,1.01-1.41,1.74-1.8.12-.06.24-.06.38-.01.14.05.24.14.3.27l1.31,2.73c.1.2.14.37.12.52-.02.14-.07.29-.14.43-.16.22-.29.48-.39.79-.1.31-.13.66-.09,1.06.04.4.18.85.42,1.35.4.84.84,1.41,1.3,1.71.46.3.92.34,1.37.13.32-.15.52-.39.62-.73.1-.33.11-.79.03-1.38-.08-.59-.24-1.35-.47-2.29-.3-1.21-.45-2.28-.45-3.23,0-.95.2-1.77.6-2.46.4-.69,1.05-1.25,1.95-1.68.88-.42,1.78-.55,2.72-.39.93.17,1.81.6,2.63,1.31.82.71,1.52,1.67,2.11,2.9.48,1,.77,1.93.87,2.82.11.88.07,1.69-.12,2.41-.18.73-.45,1.34-.81,1.84-.36.5-.76.87-1.21,1.1-.12.06-.24.06-.38.02-.13-.04-.23-.13-.3-.26l-1.38-2.85c-.08-.16-.11-.31-.11-.45,0-.14.05-.29.13-.44.28-.24.45-.6.51-1.08s-.05-1.02-.33-1.61c-.31-.64-.66-1.07-1.05-1.32s-.82-.26-1.28-.04c-.29.14-.49.36-.62.66-.12.3-.15.71-.09,1.24.06.53.19,1.23.4,2.11.38,1.43.59,2.64.61,3.62.02.98-.17,1.8-.57,2.46-.4.66-1.04,1.2-1.92,1.62-.98.47-1.96.6-2.94.39-.98-.21-1.89-.72-2.74-1.52-.85-.8-1.58-1.83-2.19-3.1Z"/>
        <path class="cls-1" d="m258.88,123.78c-.03-.16,0-.31.09-.44.09-.14.22-.22.39-.26l2.22-.42c.17-.03.32,0,.46.1.13.1.21.22.24.38l1.39,7.41c.03.16,0,.31-.09.44-.09.14-.22.22-.39.26l-2.22.42c-.17.03-.33,0-.46-.1-.13-.1-.21-.22-.24-.38l-1.39-7.41Z"/>
        <path class="cls-1" d="m254.97,151.06c.01-.18.08-.31.2-.42.12-.1.27-.15.44-.14l15.56,1.17c.17.01.31.08.42.2s.15.27.14.44l-.84,11.18c-.01.18-.08.31-.2.42-.12.1-.27.15-.44.14l-2.25-.17c-.18-.01-.31-.08-.42-.2s-.15-.27-.14-.44l.58-7.63-3.23-.24-.54,7.11c-.01.18-.08.31-.21.42-.13.1-.28.15-.46.13l-2.08-.16c-.16-.01-.29-.08-.41-.2-.11-.12-.16-.27-.15-.44l.54-7.11-3.33-.25-.59,7.83c-.01.18-.08.31-.2.42-.12.1-.27.15-.44.13l-2.25-.17c-.18-.01-.31-.08-.42-.2-.1-.12-.15-.27-.13-.44l.86-11.37Z"/>
        <path class="cls-1" d="m252.62,170.68c.04-.17.14-.29.27-.38.14-.08.29-.1.46-.05l15.08,3.97c.17.04.3.14.38.27.08.14.1.29.05.46l-.81,3.06c-.04.15-.13.28-.27.36-.14.09-.29.11-.46.06l-12.16-3.2-1.85,7.01c-.04.17-.14.3-.29.38-.15.08-.3.11-.47.06l-2.32-.61c-.17-.04-.29-.14-.37-.28-.08-.15-.09-.3-.05-.47l2.81-10.65Z"/>
        <path class="cls-1" d="m244.31,195.22c.07-.11.17-.18.31-.22.14-.04.27-.02.38.04.07.04.13.08.17.13l10.46,12.64c.13.13.21.29.25.49.04.2,0,.42-.14.65l-1.79,3.07c-.14.24-.3.38-.5.45-.19.06-.38.07-.55.02l-16.14-2.92c-.07,0-.14-.03-.21-.07-.11-.06-.19-.17-.22-.31-.04-.14-.02-.28.05-.4l1.49-2.55c.12-.21.26-.33.43-.38.16-.04.3-.05.39-.03l2.59.43,3.23-5.53-1.65-2.02c-.07-.08-.12-.19-.17-.35-.05-.16,0-.35.13-.59l1.49-2.55Zm2.69,8.1l-2.25,3.85,6.61,1.25-4.36-5.1Z"/>
        <path class="cls-1" d="m231.83,214.67c.12-.13.25-.2.41-.22.16-.01.3.04.44.16l11.77,10.24c.13.12.2.25.21.41.01.16-.04.3-.16.44l-2.08,2.39c-.1.12-.24.19-.4.21s-.31-.03-.44-.15l-9.49-8.26-4.76,5.47c-.12.13-.26.21-.43.22-.17.01-.32-.04-.45-.16l-1.81-1.58c-.13-.12-.2-.26-.21-.42,0-.16.05-.31.16-.45l7.23-8.31Z"/>
        <path class="cls-1" d="m218.78,228.28c.13-.11.28-.17.44-.15.16.01.29.08.41.22l10.15,11.85c.11.13.17.28.15.44-.01.16-.09.29-.22.41l-2.44,2.09c-.13.11-.28.17-.44.15-.16-.01-.29-.08-.41-.22l-10.15-11.85c-.11-.13-.17-.28-.15-.44.01-.16.09-.29.22-.41l2.44-2.09Z"/>
        <path class="cls-1" d="m210.57,235.18c.11-.07.24-.08.38-.05.14.04.25.11.31.22.04.07.07.13.09.2l3.22,16.09c.05.18.05.36-.01.56-.06.2-.21.36-.44.51l-3.03,1.85c-.23.14-.45.19-.65.16-.2-.04-.37-.12-.5-.24l-12.82-10.22c-.06-.04-.11-.09-.15-.16-.07-.11-.08-.24-.05-.38.03-.14.11-.25.24-.33l2.52-1.54c.21-.12.39-.17.56-.13.17.04.29.09.36.16l2.08,1.6,5.47-3.34-.5-2.56c-.02-.1-.02-.23.02-.39.03-.16.17-.31.4-.45l2.52-1.54Zm-1.47,8.41l-3.81,2.33,5.23,4.23-1.42-6.56Z"/>
        <path class="cls-1" d="m190.4,246.43c.17-.06.32-.06.46.01.14.07.25.18.3.35l5.27,14.68c.06.17.06.32-.01.46-.07.14-.18.24-.35.3l-5.87,2.11c-1.48.53-2.82.74-4.03.64s-2.26-.51-3.14-1.22c-.88-.71-1.59-1.73-2.12-3.05-.25-.66-.47-1.23-.65-1.73-.18-.5-.38-1.07-.59-1.72-.44-1.42-.56-2.69-.36-3.8.2-1.11.73-2.07,1.59-2.88.86-.81,2.02-1.48,3.5-2.01l5.99-2.15Zm-2.31,4.5l-2.39.86c-.65.23-1.15.53-1.5.89-.36.36-.57.79-.63,1.31-.06.52.03,1.13.27,1.84.13.45.25.84.37,1.2.12.35.24.69.37,1.04.13.34.29.72.47,1.13.4,1.01.93,1.67,1.61,1.96s1.51.26,2.5-.1l2.28-.82-3.34-9.31Z"/>
        <path class="cls-1" d="m163.65,253.51c1.46-.21,2.76-.16,3.9.16,1.15.32,2.09.91,2.83,1.78.74.87,1.25,2.02,1.52,3.45.12.68.22,1.36.32,2.04.1.68.19,1.37.28,2.07.15,1.43-.01,2.68-.48,3.75-.46,1.06-1.2,1.92-2.21,2.57-1,.65-2.23,1.08-3.67,1.29-1.42.21-2.71.15-3.87-.18-1.16-.33-2.11-.94-2.88-1.82-.76-.88-1.27-2.03-1.52-3.45-.13-.69-.25-1.38-.35-2.06-.1-.68-.18-1.36-.25-2.05-.15-1.45,0-2.7.47-3.74.46-1.05,1.2-1.89,2.2-2.52,1.01-.63,2.24-1.06,3.69-1.27Zm.5,3.42c-.84.12-1.49.48-1.94,1.06-.46.58-.62,1.43-.49,2.55.07.7.15,1.36.24,1.98.09.62.2,1.26.33,1.92.14.74.37,1.32.68,1.76.31.43.7.73,1.16.88s.97.2,1.52.12c.54-.08,1.01-.26,1.4-.54.4-.29.69-.68.87-1.18.18-.5.24-1.13.16-1.88-.08-.67-.17-1.31-.26-1.93-.09-.62-.19-1.27-.31-1.97-.21-1.1-.61-1.87-1.21-2.3-.6-.43-1.31-.58-2.15-.46Z"/>
        <path class="cls-1" d="m138.67,254.61c.17.03.31.1.4.23.09.13.13.28.1.45l-2.26,15.44c-.03.17-.1.31-.23.4-.13.09-.28.13-.45.1l-6.65-.97c-1.31-.19-2.43-.56-3.34-1.11-.92-.55-1.59-1.26-2.01-2.15s-.55-1.95-.37-3.18c.18-1.22.6-2.18,1.26-2.9.66-.71,1.51-1.19,2.54-1.42,1.03-.24,2.2-.26,3.51-.07l2.83.42.76-5.2c.03-.17.11-.31.24-.4.13-.09.29-.13.46-.1l3.21.47Zm-5.08,8.52l-2.78-.41c-.68-.1-1.25,0-1.7.28-.46.29-.73.79-.84,1.5-.09.6.01,1.13.3,1.6.29.46.83.75,1.62.87l2.78.41.62-4.25Z"/>
        <path class="cls-1" d="m118.46,250.74c.17.06.29.16.35.3.07.14.08.3.02.46l-5.14,14.73c-.06.17-.16.28-.3.35-.14.07-.3.08-.46.02l-10.58-3.69c-.17-.06-.28-.16-.35-.3-.07-.14-.08-.3-.02-.46l.74-2.13c.06-.17.16-.28.3-.35s.3-.07.46-.02l7.23,2.52,1.07-3.06-6.73-2.35c-.17-.06-.28-.16-.35-.31-.07-.15-.07-.31-.01-.48l.69-1.97c.05-.15.15-.26.3-.34.15-.08.3-.09.47-.03l6.73,2.35,1.1-3.15-7.41-2.58c-.17-.06-.28-.16-.35-.3-.07-.14-.08-.3-.02-.46l.74-2.13c.06-.17.16-.28.3-.35.14-.07.3-.07.46-.02l10.76,3.75Z"/>
        <path class="cls-1" d="m100.11,243.5c.15.09.25.21.29.36.04.15.02.31-.07.46l-7.83,13.49c-.09.15-.21.25-.36.29-.15.04-.31.02-.46-.07l-5.65-3.28c-1.79-1.04-2.95-2.27-3.51-3.69-.55-1.42-.39-2.89.48-4.4.57-.98,1.29-1.67,2.16-2.08s1.79-.55,2.77-.45l.1-6.77c0-.11.03-.2.07-.26.07-.11.17-.19.31-.22.14-.04.27-.02.4.05l2.74,1.59c.26.15.42.33.47.53s.07.38.06.52l-.29,5.94,2.14,1.24,2.68-4.61c.09-.15.21-.25.36-.29.15-.04.31-.02.46.07l2.68,1.55Zm-7.87,6.2l-2.41-1.4c-.65-.38-1.23-.5-1.74-.37-.51.13-.92.47-1.25,1.02-.31.54-.41,1.07-.29,1.58.12.51.52.97,1.2,1.36l2.41,1.4,2.08-3.59Z"/>
        <path class="cls-1" d="m82.47,232.2c.13.12.21.25.22.41.01.16-.04.3-.16.44l-10.21,11.8c-.12.13-.25.21-.41.22s-.3-.04-.44-.16l-8.33-7.21c-.13-.12-.21-.25-.23-.42-.02-.16.03-.31.15-.44l1.59-1.83c.12-.13.25-.2.42-.21.16,0,.31.05.45.16l5.59,4.84,2.31-2.67-5.23-4.52c-.13-.12-.21-.26-.22-.43-.01-.17.04-.32.15-.45l1.57-1.81c.11-.12.24-.19.41-.2.17-.01.32.04.45.15l5.23,4.52,3.55-4.1c.12-.13.25-.21.41-.22.16-.01.3.04.44.16l2.29,1.98Z"/>
        <path class="cls-1" d="m68.46,219.02c.11.14.16.29.14.44-.02.16-.09.29-.23.4l-12.18,9.74c-.14.11-.28.16-.44.14-.16-.02-.29-.09-.4-.23l-7-8.75c-.11-.14-.16-.28-.14-.44.02-.16.09-.29.23-.4l1.76-1.41c.14-.11.28-.16.44-.14.16.02.29.1.4.23l4.78,5.98,2.53-2.02-4.45-5.57c-.11-.14-.15-.29-.13-.45.02-.16.1-.3.24-.41l1.63-1.3c.12-.1.27-.14.43-.13.16.01.3.09.41.23l4.45,5.57,2.61-2.08-4.9-6.13c-.11-.14-.16-.28-.14-.44.02-.16.09-.29.23-.4l1.76-1.41c.14-.11.29-.16.44-.14.16.02.29.1.4.23l7.12,8.9Z"/>
        <path class="cls-1" d="m54.09,197.47c.7,1.35,1.09,2.61,1.15,3.8.06,1.19-.2,2.27-.77,3.24s-1.48,1.82-2.71,2.54c-.58.32-1.19.65-1.86,1-.67.35-1.31.67-1.93.98-1.26.59-2.47.84-3.61.74-1.14-.09-2.18-.5-3.13-1.23-.95-.73-1.77-1.76-2.46-3.08-.49-.94-.82-1.86-1-2.78-.18-.92-.2-1.79-.07-2.62.13-.83.43-1.58.89-2.24s1.08-1.21,1.87-1.64c.12-.08.25-.1.38-.05.13.05.23.14.3.26l1.5,2.87c.1.18.13.35.1.49-.02.14-.13.3-.3.48-.65.59-.99,1.18-1.04,1.77-.04.59.11,1.21.45,1.87.41.78.95,1.28,1.62,1.51.67.23,1.52.1,2.55-.38,1.18-.56,2.38-1.19,3.57-1.87.99-.57,1.58-1.19,1.77-1.87.2-.68.09-1.41-.32-2.19-.34-.65-.77-1.13-1.29-1.44-.52-.31-1.2-.36-2.03-.16-.24.05-.43.05-.56-.02-.13-.07-.25-.19-.34-.38l-1.5-2.87c-.07-.13-.08-.26-.04-.4.04-.14.12-.23.26-.28.8-.4,1.6-.6,2.41-.6.81,0,1.59.19,2.35.55.76.36,1.46.88,2.11,1.55.65.67,1.22,1.48,1.71,2.41Z"/>
        <path class="cls-1" d="m46.76,180.39c.05.17.04.32-.04.46-.08.14-.2.23-.37.28l-11.92,3.55,1.22,4.09c.05.17.04.32-.05.47-.08.14-.2.23-.35.28l-2.46.73c-.17.05-.32.04-.46-.04-.14-.08-.23-.2-.28-.37l-3.69-12.37c-.05-.17-.04-.32.04-.46.07-.14.2-.23.37-.28l2.46-.73c.15-.05.3-.03.45.04.15.07.25.19.3.36l1.22,4.09,11.91-3.55c.17-.05.32-.04.46.04.14.08.23.2.28.37l.9,3.04Z"/>
        <path class="cls-1" d="m42.59,158.81c.15,1.47.04,2.76-.33,3.89-.37,1.13-1.01,2.05-1.91,2.75-.9.7-2.07,1.16-3.52,1.36-.68.08-1.37.16-2.05.23-.69.07-1.38.13-2.08.18-1.44.08-2.68-.14-3.72-.65-1.04-.51-1.86-1.29-2.46-2.32-.6-1.03-.97-2.27-1.12-3.72-.14-1.43-.02-2.72.36-3.86.38-1.14,1.04-2.07,1.95-2.79.92-.72,2.09-1.17,3.52-1.37.7-.1,1.39-.19,2.07-.26.69-.07,1.37-.12,2.06-.16,1.46-.08,2.69.13,3.72.64,1.02.51,1.83,1.28,2.42,2.32.58,1.04.95,2.28,1.1,3.75Zm-3.44.34c-.08-.84-.41-1.51-.97-1.99-.56-.48-1.4-.68-2.52-.6-.7.04-1.37.09-1.99.15s-1.26.14-1.93.24c-.74.11-1.34.31-1.79.6-.44.29-.76.67-.94,1.12s-.24.96-.19,1.51c.05.54.21,1.02.48,1.42.27.41.65.72,1.14.92.49.21,1.12.29,1.87.25.67-.05,1.32-.11,1.94-.17.62-.06,1.28-.14,1.98-.22,1.11-.16,1.89-.53,2.35-1.1.46-.58.64-1.29.56-2.13Z"/>
      </g>
    </g>
  </g>
</svg>